HIERARCHY
ROOT Hips
{
  OFFSET 43.0842 91.1655 101.099
  CHANNELS 6 Xposition Yposition Zposition Zrotation Xrotation Yrotation
  JOINT LeftUpLeg
  {
    OFFSET 8.64259 1.95398 -2.38835
    CHANNELS 3 Zrotation Xrotation Yrotation
    JOINT LeftLeg
    {
      OFFSET 43.7702 0 0
      CHANNELS 3 Zrotation Xrotation Yrotation
      JOINT LeftFoot
      {
        OFFSET 40.6238 0 0
        CHANNELS 3 Zrotation Xrotation Yrotation
        JOINT LeftToeBase
        {
          OFFSET 12.7242 0 0
          CHANNELS 3 Zrotation Xrotation Yrotation
          End Site
          {
            OFFSET 0 0 0
          }
        }
      }
    }
  }
  JOINT RightUpLeg
  {
    OFFSET -8.2249 1.95398 -2.59336
    CHANNELS 3 Zrotation Xrotation Yrotation
    JOINT RightLeg
    {
      OFFSET 43.5653 0 0
      CHANNELS 3 Zrotation Xrotation Yrotation
      JOINT RightFoot
      {
        OFFSET 40.6238 0 0
        CHANNELS 3 Zrotation Xrotation Yrotation
        JOINT RightToeBase
        {
          OFFSET 12.7242 0 0
          CHANNELS 3 Zrotation Xrotation Yrotation
          End Site
          {
            OFFSET 0 0 0
          }
        }
      }
    }
  }
  JOINT Spine
  {
    OFFSET 0.165834 0.87714 6.61349
    CHANNELS 3 Zrotation Xrotation Yrotation
    JOINT Spine1
    {
      OFFSET 7.38963 1.71661e-005 0
      CHANNELS 3 Zrotation Xrotation Yrotation
      JOINT Spine2
      {
        OFFSET 11.9445 1.14441e-005 0
        CHANNELS 3 Zrotation Xrotation Yrotation
        JOINT Spine3
        {
          OFFSET 14.7254 4.19617e-005 0
          CHANNELS 3 Zrotation Xrotation Yrotation
          JOINT Spine4
          {
            OFFSET 10.9679 0 0
            CHANNELS 3 Zrotation Xrotation Yrotation
            JOINT RightShoulder
            {
              OFFSET 2.46616 -1.6653 3.69651
              CHANNELS 3 Zrotation Xrotation Yrotation
              JOINT RightArm
              {
                OFFSET 13.0012 0 0
                CHANNELS 3 Zrotation Xrotation Yrotation
                JOINT RightForeArm
                {
                  OFFSET 28.7848 1.52588e-005 0
                  CHANNELS 3 Zrotation Xrotation Yrotation
                  JOINT RightHand
                  {
                    OFFSET 26.5688 1.52588e-005 0
                    CHANNELS 3 Zrotation Xrotation Yrotation
                    End Site
                    {
                      OFFSET 0 0 0
                    }
                  }
                }
              }
            }
            JOINT LeftShoulder
            {
              OFFSET 2.38034 -1.29275 -3.7523
              CHANNELS 3 Zrotation Xrotation Yrotation
              JOINT LeftArm
              {
                OFFSET 16.3182 6.10351e-005 0
                CHANNELS 3 Zrotation Xrotation Yrotation
                JOINT LeftForeArm
                {
                  OFFSET 27.0901 0 0
                  CHANNELS 3 Zrotation Xrotation Yrotation
                  JOINT LeftHand
                  {
                    OFFSET 24.5451 1.52588e-005 0
                    CHANNELS 3 Zrotation Xrotation Yrotation
                    End Site
                    {
                      OFFSET 0 0 0
                    }
                  }
                }
              }
            }
            JOINT Neck
            {
              OFFSET 5.0226 -0.0266342 0
              CHANNELS 3 Zrotation Xrotation Yrotation
              JOINT Head
              {
                OFFSET 6.69364 2.86102e-005 0
                CHANNELS 3 Zrotation Xrotation Yrotation
                End Site
                {
                  OFFSET 0 0 0
                }
              }
            }
          }
        }
      }
    }
  }
}
MOTION
Frames:	13
Frame Time:	0.0333333
25.0254 87.8209 123.303 93.5911 -22.1556 85.9527 -170.786 14.1513 103.37 -33.7458 16.4354 -0.820945 64.1255 3.86166 4.5268 36.3791 4.54135 10.092 170.466 20.9992 79.469 -43.095 -5.79247 -1.6234 74.6387 -13.5317 -9.61567 35.7881 -3.72525 -0.566953 -0.448585 7.43353 -90.0233 12.0073 -0.902794 0.0519092 0.336708 -0.899645 0.0915863 -22.2009 -0.876666 -0.221842 -2.18821 -0.876661 -0.221846 96.4559 -44.6286 -91.5079 31.2083 55.9731 -50.6077 -15.1995 -12.2242 -122.637 -7.51415 0.00539931 12.9734 -92.407 -48.8082 74.8359 -13.349 -1.30927 -67.9814 -1.75562 16.062 -104.404 18.9479 2.26088 -0.467053 -20.0318 -13.3007 -1.73812 -2.03635 -13.7288 -9.39405 
25.4431 87.9493 122.216 93.6535 -22.8535 86.6004 -170.142 13.664 105.222 -34.5265 16.3802 -0.603533 62.1854 0.713675 7.44934 34.7942 1.82534 10.6708 171.037 20.4118 79.4528 -41.8804 -5.77052 -1.97816 73.9801 -12.9199 -8.89882 35.7391 -3.67573 -0.649089 -0.413833 7.41019 -90.0908 12.0535 -0.865524 -0.0864072 0.382849 -0.86849 -0.0482343 -22.1543 -0.799572 -0.342556 -2.14169 -0.799564 -0.342559 96.5906 -43.3602 -91.4429 34.1216 56.5031 -54.7379 -18.2206 -12.3936 -119.495 -6.72086 0.26174 12.2981 -92.1147 -48.5642 75.2137 -13.1169 -1.59115 -68.8337 -0.903346 15.6056 -103.978 18.7921 2.25116 -0.886713 -19.1552 -12.2284 -1.09447 -2.71547 -12.5364 -8.65663 
25.9698 88.1171 120.802 93.5373 -23.648 87.1404 -169.633 12.4651 106.589 -33.6763 16.9554 -0.440683 59.8311 -2.75382 6.42955 33.0556 -1.38584 11.4889 171.861 20.0036 79.287 -40.4776 -6.42621 -2.42565 72.671 -11.5327 -8.55474 36.0766 -3.71186 -1.18699 -0.398586 7.35658 -90.1732 12.16 -0.87416 -0.248683 0.489299 -0.884257 -0.209974 -22.0476 -0.759003 -0.499921 -2.0349 -0.75902 -0.499923 96.9978 -41.78 -90.9486 36.3583 55.9271 -57.9446 -18.8568 -13.3498 -115.299 -6.28825 0.274528 10.4155 -91.6423 -48.0869 75.808 -13.3847 -1.75405 -70.0328 -0.153772 15.6685 -103.085 18.7519 2.25006 -1.02341 -19.5147 -12.2327 -1.00231 -2.73329 -12.5525 -9.04488 
26.5131 88.4322 119.048 93.3476 -24.1959 87.7751 -169.651 11.071 106.763 -32.132 15.9308 0.103839 59.544 -2.52076 1.61523 35.4026 2.61737 10.9097 172.168 19.3251 78.9321 -37.9794 -6.52744 -2.53927 71.0923 -10.0323 -7.86093 36.1845 -3.91051 -0.681822 -0.409734 7.29506 -90.2485 12.2824 -0.931994 -0.391174 0.611748 -0.948352 -0.349775 -21.9249 -0.771353 -0.653203 -1.91227 -0.771369 -0.653205 97.0611 -41.2406 -90.9063 36.4391 55.5604 -60.0388 -19.2088 -14.125 -111.183 -6.30917 0.224513 9.9123 -91.26 -47.5763 76.2636 -13.6028 -2.14849 -70.9924 0.115152 16.2138 -102.142 18.3309 2.19236 -1.09894 -19.9774 -12.2557 -1.77046 -2.53517 -12.621 -8.60878 
27.2222 88.7074 116.884 93.085 -24.6352 88.0946 -169.836 9.9131 106.098 -30.864 17.0972 0.145107 60.1372 -1.5755 1.93555 36.7863 5.43668 9.53858 172.26 18.762 77.9913 -35.3184 -6.86142 -2.62284 70.0046 -9.14896 -6.41619 34.9404 -2.92554 -1.70904 -0.41295 7.25487 -90.3184 12.3618 -0.97177 -0.525522 0.69112 -0.99396 -0.482253 -21.8452 -0.768922 -0.793293 -1.83252 -0.768917 -0.793293 97.0367 -40.1093 -91.0903 37.7682 56.0176 -61.7499 -21.7883 -14.5991 -109.236 -5.96264 0.297444 9.29868 -91.208 -47.3864 76.2963 -13.4146 -2.34171 -72.2401 1.149 16.6431 -101.647 16.6236 1.92411 -0.184236 -20.0438 -12.4489 -2.11519 -2.88163 -12.8071 -8.61673 
27.9072 89.0826 114.438 92.8791 -25.5938 88.1206 -169.486 8.98739 104.723 -29.7165 15.5634 -0.649617 60.9797 -0.445659 3.21021 37.3978 6.99972 8.1843 172.5 18.2016 76.7785 -31.8729 -6.05329 -2.8813 68.2618 -7.79571 -3.63882 34.3302 -2.27352 -2.72124 -0.317098 7.2131 -90.3179 12.4456 -0.781194 -0.545307 0.774828 -0.804459 -0.510398 -21.7605 -0.581205 -0.754878 -1.7479 -0.581206 -0.754877 97.2385 -40.5134 -90.6847 35.6309 55.7494 -60.6999 -22.3767 -13.6828 -106.758 -5.64504 0.3348 8.42653 -91.0885 -46.7263 76.3167 -13.1589 -1.83234 -73.4028 2.22119 16.7609 -101.11 16.9659 1.99262 -0.644497 -21.0172 -12.7064 -3.9466 -2.10127 -13.2209 -7.84143 
28.4545 89.6155 111.819 92.7396 -26.9865 88.2496 -168.67 8.31013 103.265 -28.3008 13.0167 -2.23887 61.5753 -0.108855 5.58633 36.9649 7.03216 6.90111 172.91 17.619 75.7156 -27.8597 -4.83977 -3.19486 65.3193 -5.73717 -0.520857 33.6871 -1.90253 -2.71112 -0.205864 7.19645 -90.3454 12.4793 -0.573338 -0.624031 0.808323 -0.600236 -0.598203 -21.7261 -0.359302 -0.767487 -1.71348 -0.359282 -0.76749 97.0083 -41.103 -91.0152 35.9553 56.3658 -61.6647 -21.5358 -14.1515 -105.464 -5.63519 0.281315 7.79036 -90.9983 -46.2035 76.3266 -13.1483 -1.33959 -74.1326 2.93793 16.9395 -100.591 16.7999 1.98716 -1.02488 -21.8816 -12.8041 -5.28523 -1.26061 -13.4598 -6.8327 
28.8963 90.1137 109.13 92.5933 -27.6339 88.2316 -168.702 8.10245 101.685 -27.6216 12.7156 -3.26572 62.3468 0.763453 8.57939 36.1269 6.27134 6.1352 172.823 16.9002 74.5943 -23.5342 -2.93615 -3.23113 62.5366 -3.99459 2.55721 32.0588 -0.857107 -2.96824 -0.232224 7.24687 -90.4287 12.3772 -0.66498 -0.780156 0.706216 -0.698699 -0.750133 -21.8277 -0.399784 -0.943928 -1.81501 -0.399794 -0.943935 96.958 -40.0754 -91.2336 39.8874 56.3867 -64.6313 -22.4508 -14.6802 -105.729 -5.21146 0.396512 7.45762 -91.1305 -46.5523 76.2084 -12.572 -1.50138 -74.4676 3.8247 16.5868 -100.885 16.9511 2.01431 -1.17339 -20.7242 -12.6468 -3.95175 -2.04284 -13.1388 -7.38465 
29.1594 90.389 106.632 92.7548 -28.2057 88.4522 -168.592 7.91063 100.498 -27.5674 14.0998 -3.93194 63.2634 2.37907 10.9807 35.4439 5.68345 5.47911 172.491 16.5056 73.89 -20.5504 -2.86057 -3.04533 60.0757 -1.96506 2.6968 29.3667 0.839452 -3.24818 -0.210936 7.29673 -90.4511 12.2774 -0.633001 -0.829315 0.606367 -0.668868 -0.800662 -21.9272 -0.354501 -0.981202 -1.91451 -0.354511 -0.981208 97.0554 -40.8059 -90.9692 42.4682 56.8229 -67.0722 -21.6899 -15.6312 -106.11 -6.1086 0.08006 7.31019 -91.2013 -46.3661 76.0523 -12.43 -1.48454 -74.5952 4.12438 16.9042 -101.196 17.0612 2.02075 -0.976207 -21.0694 -12.9989 -5.22644 -1.21094 -13.6014 -6.70516 
29.2786 90.5225 104.592 92.9805 -28.6906 88.841 -168.402 8.34343 99.7432 -28.5487 15.7954 -4.39896 63.2106 2.51905 12.359 36.1447 6.87994 4.96356 171.807 16.8583 73.9434 -19.5397 -2.56238 -2.22395 58.7416 -0.0416441 0.526728 27.2723 1.40442 -1.409 -0.212128 7.33554 -90.47 12.1996 -0.644081 -0.866255 0.528535 -0.681595 -0.837071 -22.0048 -0.353985 -1.01977 -1.99214 -0.353973 -1.01977 97.0292 -41.4263 -90.9379 44.7104 57.0036 -68.1649 -20.728 -16.2277 -107.316 -6.21491 0.0341915 7.18812 -91.2834 -46.3911 75.9312 -12.0235 -1.25189 -73.9727 4.66003 16.6455 -101.733 17.4743 2.05744 -0.522414 -21.5524 -12.9823 -5.77144 -0.68542 -13.6629 -6.53454 
29.2634 90.5223 103.077 93.0759 -29.2125 89.5124 -168.467 9.05355 99.4045 -29.7193 16.9082 -4.52263 63.6977 3.50281 14.1149 35.8929 6.31843 5.41776 171.069 17.52 74.9095 -21.3217 -1.60758 -1.06756 59.3401 -0.606304 1.88455 28.0812 1.25193 -2.25508 -0.170916 7.37406 -90.5129 12.1224 -0.582201 -0.9591 0.451237 -0.623813 -0.932562 -22.0814 -0.267064 -1.08972 -2.06873 -0.267045 -1.08972 96.9705 -41.9691 -90.9717 45.6868 57.4483 -68.0629 -20.786 -16.1426 -109.454 -6.21136 0.0733475 7.64935 -91.252 -46.4245 75.9882 -11.7304 -0.976607 -73.494 4.9585 16.3578 -102.038 17.3104 2.04195 -0.692302 -21.4263 -12.8938 -5.73433 -0.852765 -13.5607 -6.74194 
29.0912 90.4964 101.937 93.1529 -29.8917 90.2252 -168.801 9.41192 99.1515 -30.3733 17.8685 -4.32648 64.0895 4.24671 16.0192 35.5979 5.70284 5.84498 170.693 18.1159 76.7125 -24.7569 0.993099 -0.406857 61.418 -2.7097 5.03284 30.5726 -0.542347 -1.35378 -0.113714 7.39619 -90.5566 12.078 -0.488977 -1.05669 0.406753 -0.534996 -1.03415 -22.1251 -0.148853 -1.15479 -2.11243 -0.148801 -1.15478 96.7228 -42.6206 -91.3143 44.422 58.0148 -66.2111 -20.5572 -15.4995 -111.46 -5.91556 0.199163 7.94513 -91.3506 -46.9292 75.9631 -10.72 -0.789365 -72.4669 5.47287 15.4442 -102.773 17.5105 2.06018 -0.463701 -21.1733 -12.8964 -5.42164 -0.917616 -13.5449 -7.30941 
28.9923 90.448 101.08 93.7058 -30.6219 90.4622 -168.966 9.30972 98.716 -31.1135 19.6133 -4.52366 64.1581 3.97347 17.705 35.4972 5.30268 6.3482 170.309 18.7987 77.5944 -28.5258 0.774693 -0.162482 62.5314 -3.28108 2.87292 32.5487 -1.74897 -1.12801 -0.0636651 7.4553 -90.505 11.9608 -0.3646 -0.967779 0.289586 -0.406846 -0.950808 -22.2427 -0.0569128 -1.03261 -2.23007 -0.0568947 -1.03262 96.6125 -43.388 -91.4038 43.1909 58.2654 -64.4047 -19.8661 -15.2228 -113.39 -5.96453 0.223119 8.43233 -91.359 -47.1526 76.0063 -10.2823 -0.275832 -71.1686 6.12452 14.6547 -103.773 17.3658 2.01581 0.11794 -20.9323 -12.8426 -5.28497 -1.10117 -13.4633 -7.47432 
